HIERARCHY
ROOT Pelvis
{
	OFFSET 0.000000 0.941512 0.000000
	CHANNELS 6 Xposition Yposition Zposition Zrotation Yrotation Xrotation 
	JOINT Pelvis_L_Hip
	{
		OFFSET 0.000000 0.000000 0.000000
		CHANNELS 3 Zrotation Yrotation Xrotation
		JOINT L_Hip
		{
			OFFSET 0.062321 -0.080322 -0.016990
			CHANNELS 3 Zrotation Yrotation Xrotation
			JOINT L_Knee
			{
				OFFSET 0.093051 -0.381305 -0.029784
				CHANNELS 3 Zrotation Yrotation Xrotation
				JOINT L_Ankle
				{
					OFFSET -0.010371 -0.431000 -0.033614
					CHANNELS 3 Zrotation Yrotation Xrotation
					End Site #name: L_Foot
					{
						OFFSET 0.069299 -0.038670 0.119418
					}
				}
			}
		}
	}
	JOINT Pelvis_R_Hip
	{
		OFFSET 0.000000 0.000000 0.000000
		CHANNELS 3 Zrotation Yrotation Xrotation
		JOINT R_Hip
		{
			OFFSET -0.055334 -0.094904 -0.002373
			CHANNELS 3 Zrotation Yrotation Xrotation
			JOINT R_Knee
			{
				OFFSET -0.064207 -0.384370 -0.019592
				CHANNELS 3 Zrotation Yrotation Xrotation
				JOINT R_Ankle
				{
					OFFSET 0.025418 -0.419734 -0.065953
					CHANNELS 3 Zrotation Yrotation Xrotation
					End Site #name: R_Foot
					{
						OFFSET -0.057233 -0.039888 0.132134
					}
				}
			}
		}
	}
	JOINT Pelvis_Spine1
	{
		OFFSET 0.000000 0.000000 0.000000
		CHANNELS 3 Zrotation Yrotation Xrotation
		JOINT Spine1
		{
			OFFSET -0.005562 0.124093 -0.043360
			CHANNELS 3 Zrotation Yrotation Xrotation
			JOINT Spine2
			{
				OFFSET 0.012244 0.139499 0.029894
				CHANNELS 3 Zrotation Yrotation Xrotation
				JOINT Spine3
				{
					OFFSET -0.002556 0.056561 0.009225
					CHANNELS 3 Zrotation Yrotation Xrotation
					JOINT Spine3_Neck
					{
						OFFSET 0.000000 0.000000 0.000000
						CHANNELS 3 Zrotation Yrotation Xrotation
						JOINT Neck
						{
							OFFSET -0.005205 0.217920 -0.024551
							CHANNELS 3 Zrotation Yrotation Xrotation
							End Site #name: Head
							{
								OFFSET 0.002365 0.091850 0.046637
							}
						}
					}
					JOINT Spine3_L_Collar
					{
						OFFSET 0.000000 0.000000 0.000000
						CHANNELS 3 Zrotation Yrotation Xrotation
						JOINT L_Collar
						{
							OFFSET 0.072225 0.116603 -0.009480
							CHANNELS 3 Zrotation Yrotation Xrotation
							JOINT L_Shoulder
							{
								OFFSET 0.115937 -0.058643 -0.021018
								CHANNELS 3 Zrotation Yrotation Xrotation
								JOINT L_Elbow
								{
									OFFSET 0.021994 -0.254722 -0.024492
									CHANNELS 3 Zrotation Yrotation Xrotation
									End Site #name: L_Wrist
									{
										OFFSET 0.048810 -0.240214 0.103329
									}
								}
							}
						}
					}
					JOINT Spine3_R_Collar
					{
						OFFSET 0.000000 0.000000 0.000000
						CHANNELS 3 Zrotation Yrotation Xrotation
						JOINT R_Collar
						{
							OFFSET -0.073372 0.120704 -0.024611
							CHANNELS 3 Zrotation Yrotation Xrotation
							JOINT R_Shoulder
							{
								OFFSET -0.108089 -0.054969 -0.020504
								CHANNELS 3 Zrotation Yrotation Xrotation
								JOINT R_Elbow
								{
									OFFSET -0.033684 -0.260739 0.009889
									CHANNELS 3 Zrotation Yrotation Xrotation
									End Site #name: R_Wrist
									{
										OFFSET -0.067980 -0.232763 0.118463
									}
								}
							}
						}
					}
				}
			}
		}
	}
}
MOTION
Frames: 7
Frame Time: 0.041667
0.112930 0.865420 1.320242 -2.801699 13.029238 -7.902073 0.000000 0.000000 0.000000 0.188542 5.598566 26.951604 3.930115 -1.736888 19.003302 3.227509 -9.073594 -8.826797 0.000000 0.000000 0.000000 -1.322418 3.814714 -29.264000 -3.619614 1.527633 12.197643 3.877714 -3.787614 14.123264 0.000000 0.000000 0.000000 0.270821 1.043540 -12.169931 -9.381249 6.061216 49.408977 4.741978 5.091030 -40.813875 0.000000 0.000000 0.000000 -0.908136 -2.740918 41.457803 0.000000 0.000000 0.000000 8.778259 -1.081063 1.218171 6.048911 -0.040845 5.374387 -3.454588 -0.625020 3.346059 0.000000 0.000000 0.000000 -15.116995 -3.336544 4.352770 3.215981 -2.799174 19.342520 0.546277 0.645996 -1.175208 
0.099646 0.878825 1.379550 -4.636732 11.342389 -5.026186 0.000000 0.000000 0.000000 2.603174 5.062803 27.847885 6.130752 -1.817096 15.166211 -5.327398 -11.076719 2.653923 0.000000 0.000000 0.000000 2.313010 5.201751 -32.258561 -2.390505 1.476934 17.154119 3.830708 -2.765684 12.604861 0.000000 0.000000 0.000000 2.443340 0.860998 -12.144067 -7.869645 5.272566 47.831082 4.721868 4.871273 -40.462145 0.000000 0.000000 0.000000 -1.929572 -1.368204 39.024107 0.000000 0.000000 0.000000 9.344250 -2.585857 0.350418 4.234493 0.143015 5.782904 -5.393333 -2.414965 -0.243112 0.000000 0.000000 0.000000 -15.260610 -1.785362 3.385241 2.345627 -2.512201 17.871925 1.461689 2.027819 -3.876828 
0.086664 0.898916 1.443532 -5.443506 10.238862 -3.214763 0.000000 0.000000 0.000000 4.576487 4.523156 28.222042 7.332676 -1.871439 13.496896 -14.240663 -9.569952 15.731444 0.000000 0.000000 0.000000 4.997810 5.789399 -31.303446 -1.608926 1.329139 18.954681 3.306755 -1.810272 10.160221 0.000000 0.000000 0.000000 2.701723 0.810119 -11.895932 -6.132360 4.340941 47.122720 4.552898 4.095970 -40.519501 0.000000 0.000000 0.000000 -2.598386 -0.361352 37.062569 0.000000 0.000000 0.000000 11.002808 -3.828939 -0.190326 2.938597 0.327428 6.860840 -7.901192 -4.497252 -3.220148 0.000000 0.000000 0.000000 -15.296619 -2.223400 3.795955 2.120024 -2.252438 16.159782 3.084132 4.447140 -7.938654 
0.076928 0.915009 1.504058 -5.511144 10.238549 -1.632921 0.000000 0.000000 0.000000 5.687532 3.548838 24.510288 6.738261 -2.209036 17.682559 -19.901257 -7.354241 24.493712 0.000000 0.000000 0.000000 6.288724 5.602589 -28.642262 -0.670578 0.973386 18.153563 2.182323 -1.683118 7.169404 0.000000 0.000000 0.000000 3.658517 0.613485 -11.041075 -5.739494 4.031831 45.431516 4.016283 3.104240 -40.076065 0.000000 0.000000 0.000000 -3.220354 0.370371 35.837327 0.000000 0.000000 0.000000 11.754449 -5.485644 -1.180111 2.235670 0.495918 8.335492 -9.038513 -5.682380 -5.059765 0.000000 0.000000 0.000000 -16.119684 -1.936084 3.826048 4.359216 -2.460904 16.631163 2.710441 5.480112 -11.262223 
0.067325 0.927755 1.556071 -4.795038 9.865915 -0.875529 0.000000 0.000000 0.000000 5.504655 2.760592 19.028341 4.475081 -2.329557 24.400612 -23.794331 -12.108625 26.958305 0.000000 0.000000 0.000000 7.089996 5.022040 -24.745704 -0.724549 0.916656 15.927397 1.923030 -0.677403 5.575211 0.000000 0.000000 0.000000 3.997315 0.414651 -9.736275 -6.625073 4.616699 44.593336 4.345140 3.409137 -39.470355 0.000000 0.000000 0.000000 -4.018897 1.136013 33.989105 0.000000 0.000000 0.000000 13.138074 -6.171686 -1.401280 -0.094199 0.733777 7.974710 -8.312466 -5.645135 -6.098181 0.000000 0.000000 0.000000 -17.099083 -0.931812 3.331183 6.786835 -2.677339 16.984418 1.784886 5.408988 -12.726024 
0.060947 0.938719 1.603099 -3.860616 7.770808 -1.040305 0.000000 0.000000 0.000000 3.185800 2.622246 14.483003 2.016369 -1.824531 28.100291 -19.165945 -9.945188 22.383818 0.000000 0.000000 0.000000 8.837640 4.483357 -20.642621 -2.743291 1.523866 14.708365 2.270490 1.938802 4.135248 0.000000 0.000000 0.000000 4.298115 0.107332 -7.691117 -8.189941 5.766754 42.778472 5.095703 4.704541 -38.466132 0.000000 0.000000 0.000000 -4.712150 1.760021 33.923675 0.000000 0.000000 0.000000 12.338603 -4.721892 -0.551823 -0.509024 0.792110 8.108374 -7.449030 -5.388524 -6.713675 0.000000 0.000000 0.000000 -17.209544 -0.271382 2.893890 6.426996 -2.631140 16.819707 3.049729 6.354569 -12.949435 
0.057543 0.946580 1.644753 -2.859258 5.210453 -0.775499 0.000000 0.000000 0.000000 -0.132656 1.806523 7.542127 -1.590257 -0.730519 33.989272 -6.768936 1.721651 11.884830 0.000000 0.000000 0.000000 10.382530 4.146505 -18.203360 -5.380220 2.380479 14.845658 2.441904 4.745459 2.354110 0.000000 0.000000 0.000000 5.193758 -0.186044 -6.630172 -9.694601 6.866234 41.225106 4.968441 5.534606 -37.471758 0.000000 0.000000 0.000000 -4.943221 2.046382 34.566090 0.000000 0.000000 0.000000 11.334524 -2.382938 0.793640 -0.825219 0.874777 8.603658 -5.896368 -4.625929 -6.911857 0.000000 0.000000 0.000000 -17.942733 -0.217916 3.044834 7.141089 -2.570411 16.231270 3.856570 7.017133 -13.230754 
